<?xml version="1.0" encoding="UTF-8"?>
<!DOCTYPE svg PUBLIC "-//W3C//DTD SVG 1.1//EN" "http://www.w3.org/Graphics/SVG/1.1/DTD/svg11.dtd">
<!-- Creator: CorelDRAW -->
<svg xmlns="http://www.w3.org/2000/svg" xml:space="preserve" width="6.82666in" height="6.82666in" style="shape-rendering:geometricPrecision; text-rendering:geometricPrecision; image-rendering:optimizeQuality; fill-rule:evenodd; clip-rule:evenodd"
viewBox="0 0 6.82666 6.82666"
 xmlns:xlink="http://www.w3.org/1999/xlink">
 <defs>
  <style type="text/css">
   <![CDATA[
    .fil2 {fill:none}
    .fil0 {fill:#424242}
    .fil1 {fill:#FFFFFE;fill-rule:nonzero}
   ]]>
  </style>
 </defs>
 <rect class="fil0" width="6.82666" height="6.82666"/>
 <g id="Layer_x0020_1">
  <metadata id="CorelCorpID_0Corel-Layer"/>
  <g id="_508615576">
   <path id="_508615624" class="fil1" d="M1.79731 3.62746l2.5545 -2.5545 -7.87402e-006 -7.87402e-006c0.0416535,-0.0416535 0.109197,-0.0416535 0.15085,0l0.000590551 0.000606299 0.40872 0.40872 7.87402e-006 -7.87402e-006c0.0416535,0.0416535 0.0416535,0.109197 0,0.15085l-0.000606299 0.000590551 -2.5557 2.5557 7.87402e-006 7.87402e-006c-0.0132205,0.0132205 -0.0290433,0.0222362 -0.0458228,0.027063l-0.641909 0.22863 6.29921e-005 0.000177165c-0.0554921,0.0197638 -0.116512,-0.00920079 -0.136276,-0.0646929 -0.00988976,-0.0277638 -0.00757874,-0.0569134 0.00414961,-0.0815827l0.235472 -0.631421 0.0995827 0.0370827 -0.0999449 -0.0372717c0.00584252,-0.0156693 0.0149803,-0.0291457 0.0263307,-0.0399488zm2.62991 -2.32825l-2.46514 2.46515 -0.150484 0.403528 0.409925 -0.146004 2.46419 -2.46419 -0.258484 -0.258484z"/>
   <path id="_508615888" class="fil1" d="M3.98803 1.70671c-0.0416496,-0.0416496 -0.109185,-0.0416496 -0.150835,0 -0.0416496,0.0416496 -0.0416496,0.109185 0,0.150835l0.290185 0.290185c0.0416496,0.0416496 0.109185,0.0416496 0.150835,0 0.0416496,-0.0416496 0.0416496,-0.109185 0,-0.150835l-0.290185 -0.290185z"/>
   <path id="_508615600" class="fil1" d="M1.57452 4.57486c0.00908661,-0.0279567 -0.0062126,-0.0579961 -0.0341693,-0.0670827 -0.0279567,-0.00908661 -0.0579961,0.0062126 -0.0670827,0.0341693 -0.0749291,0.230768 -0.0546496,0.39974 0.0368937,0.522992 0.0900039,0.121185 0.246457,0.192689 0.447039,0.231941 0.349024,0.0683071 0.763524,0.00628346 1.19012,-0.0575551 0.823217,-0.123189 1.69301,-0.253343 2.1521,0.571461 0.0142677,0.0256535 0.0466378,0.0348898 0.0722913,0.020622 0.0256535,-0.0142677 0.0348898,-0.0466378 0.020622,-0.0722913 -0.495039,-0.889382 -1.40202,-0.753661 -2.26043,-0.625209 -0.417528,0.0624803 -0.823209,0.123185 -1.15429,0.0583898 -0.175496,-0.0343425 -0.309815,-0.0934409 -0.382039,-0.190689 -0.070689,-0.0951772 -0.084126,-0.232508 -0.0210591,-0.426748z"/>
  </g>
  <path class="fil1" d="M2.04619 3.59825c-0.0409567,-0.0421102 -0.108307,-0.0430433 -0.150417,-0.00208661 -0.0421102,0.0409567 -0.0430433,0.108307 -0.00208661,0.150417l0.343811 0.353516c0.0409567,0.0421102 0.108307,0.0430433 0.150417,0.00208661 0.0421102,-0.0409567 0.0430433,-0.108307 0.00208661,-0.150417l-0.343811 -0.353516z"/>
 </g>
 <rect class="fil2" width="6.82666" height="6.82666"/>
</svg>
